<?xml version="1.0" standalone="no"?>
<!DOCTYPE svg PUBLIC "-//W3C//DTD SVG 20010904//EN"
 "http://www.w3.org/TR/2001/REC-SVG-20010904/DTD/svg10.dtd">
<svg version="1.0" xmlns="http://www.w3.org/2000/svg"
 width="500.000000pt" height="500.000000pt" viewBox="0 0 500.000000 500.000000"
 preserveAspectRatio="xMidYMid meet">
<metadata>
Created by potrace 1.11, written by Peter Selinger 2001-2013
</metadata>
<g transform="translate(0.000000,500.000000) scale(0.100000,-0.100000)"
fill="#000000" stroke="none">
<path d="M2465 4406 c-11 -7 -40 -24 -65 -38 -25 -14 -160 -92 -300 -173 -312
-181 -316 -182 -365 -211 -148 -84 -649 -375 -653 -379 -11 -11 -8 -2197 3
-2210 8 -10 285 -173 465 -273 25 -13 70 -39 100 -57 52 -31 503 -292 732
-424 59 -33 112 -61 118 -61 6 0 70 34 143 77 73 42 161 93 197 113 36 20 164
94 285 165 121 70 243 140 270 156 51 28 488 281 514 297 12 7 15 167 16 1105
0 604 -2 1102 -5 1106 -5 9 -154 99 -262 159 -29 16 -235 135 -458 264 -615
356 -688 398 -702 398 -8 0 -22 -6 -33 -14z m260 -1288 c99 -57 289 -167 422
-244 l243 -139 0 -235 0 -235 -445 -256 -444 -257 -446 257 -445 256 0 235 0
235 381 220 c210 121 405 234 434 250 29 17 57 33 60 37 9 9 16 5 240 -124z"/>
</g>
</svg>
